<svg width="440" height="212" viewBox="0 0 440 212" fill="none" xmlns="http://www.w3.org/2000/svg">
	<path d="M141.584 205.879C130.462 209.842 118.483 212 106 212C47.4578 212 0 164.542 0 106C0 47.4578 47.4578 0 106 0C148.897 0 185.842 25.481 202.526 62.1328C193.239 68.8107 184.746 76.5238 177.217 85.1033C168.193 54.2978 139.724 31.8 106 31.8C65.0205 31.8 31.8 65.0205 31.8 106C31.8 146.98 65.0205 180.2 106 180.2C118.453 180.2 130.19 177.132 140.496 171.711C140.168 175.764 140 179.862 140 184C140 191.432 140.54 198.737 141.584 205.879Z"
	      fill="black" fill-opacity="0.8"/>
	<path d="M141.584 205.879C130.462 209.842 118.483 212 106 212C47.4578 212 0 164.542 0 106C0 47.4578 47.4578 0 106 0C148.897 0 185.842 25.481 202.526 62.1328C193.239 68.8107 184.746 76.5238 177.217 85.1033C168.193 54.2978 139.724 31.8 106 31.8C65.0205 31.8 31.8 65.0205 31.8 106C31.8 146.98 65.0205 180.2 106 180.2C118.453 180.2 130.19 177.132 140.496 171.711C140.168 175.764 140 179.862 140 184C140 191.432 140.54 198.737 141.584 205.879Z"
	      fill="url(#paint0_radial)" fill-opacity="0.8"/>
	<path d="M103.88 0H107.413L106.707 21.2H104.587L103.88 0Z" fill="url(#paint1_linear)"/>
	<path d="M0 107.413L0 103.88L21.2 104.587V106.707L0 107.413Z" fill="url(#paint2_linear)"/>
	<path d="M142.552 211.697C140.876 202.72 140 193.462 140 184C140 101.157 207.157 34 290 34C372.843 34 440 101.157 440 184C440 193.462 439.124 202.72 437.448 211.697L393.43 202.189C394.462 196.281 395 190.203 395 184C395 126.01 347.99 79 290 79C232.01 79 185 126.01 185 184C185 190.203 185.538 196.281 186.57 202.189L142.552 211.697Z"
	      fill="black" fill-opacity="0.8"/>
	<path d="M142.552 211.697C140.876 202.72 140 193.462 140 184C140 101.157 207.157 34 290 34C372.843 34 440 101.157 440 184C440 193.462 439.124 202.72 437.448 211.697L393.43 202.189C394.462 196.281 395 190.203 395 184C395 126.01 347.99 79 290 79C232.01 79 185 126.01 185 184C185 190.203 185.538 196.281 186.57 202.189L142.552 211.697Z"
	      fill="url(#paint3_radial)" fill-opacity="0.8"/>
	<path d="M287 34H292L291 64H288L287 34Z" fill="url(#paint4_linear)"/>
	<path d="M140 186V181L170 182V185L140 186Z" fill="url(#paint5_linear)"/>
	<path d="M440 186V181L410 182V185L440 186Z" fill="url(#paint6_linear)"/>
	<g filter="url(#filter0_d)">
		<path d="M280.223 71H277.322L278.957 61.5957L275.978 62.4394L276.382 60.0928L282.042 58.2031L282.367 58.1943L280.223 71Z"
		      fill="white"/>
		<path d="M288.511 71.1758C287.784 71.1582 287.148 70.9883 286.604 70.666C286.064 70.3379 285.648 69.8603 285.355 69.2334C285.062 68.6006 284.904 67.8828 284.881 67.0801C284.863 66.6465 284.881 66.21 284.934 65.7705L285.268 63.5381C285.537 61.7393 286.114 60.3652 286.999 59.416C287.884 58.4609 289.012 57.998 290.383 58.0273C291.496 58.0508 292.366 58.4258 292.993 59.1523C293.626 59.8789 293.966 60.8691 294.013 62.123C294.024 62.5566 294.004 62.9932 293.951 63.4326L293.6 65.709C293.318 67.5312 292.735 68.9053 291.851 69.831C290.972 70.7568 289.858 71.2051 288.511 71.1758ZM291.121 63.0371C291.174 62.6269 291.203 62.2666 291.209 61.9561C291.209 60.8838 290.869 60.3301 290.189 60.2949C289.146 60.2422 288.499 61.1357 288.247 62.9756L287.781 66.1396C287.723 66.626 287.693 66.9863 287.693 67.2207C287.664 68.3047 288.001 68.8672 288.704 68.9082C289.765 68.9609 290.418 68.0439 290.664 66.1572L291.121 63.0371Z"
		      fill="white"/>
		<path d="M298.706 71.1758C297.979 71.1582 297.344 70.9883 296.799 70.666C296.26 70.3379 295.844 69.8603 295.551 69.2334C295.258 68.6006 295.1 67.8828 295.076 67.0801C295.059 66.6465 295.076 66.21 295.129 65.7705L295.463 63.5381C295.732 61.7393 296.31 60.3652 297.194 59.416C298.079 58.4609 299.207 57.998 300.578 58.0273C301.691 58.0508 302.562 58.4258 303.188 59.1523C303.821 59.8789 304.161 60.8691 304.208 62.123C304.22 62.5566 304.199 62.9932 304.146 63.4326L303.795 65.709C303.514 67.5312 302.931 68.9053 302.046 69.831C301.167 70.7568 300.054 71.2051 298.706 71.1758ZM301.316 63.0371C301.369 62.6269 301.398 62.2666 301.404 61.9561C301.404 60.8838 301.064 60.3301 300.385 60.2949C299.342 60.2422 298.694 61.1357 298.442 62.9756L297.977 66.1396C297.918 66.626 297.889 66.9863 297.889 67.2207C297.859 68.3047 298.196 68.8672 298.899 68.9082C299.96 68.9609 300.613 68.0439 300.859 66.1572L301.316 63.0371Z"
		      fill="white"/>
	</g>
	<g filter="url(#filter1_d)">
		<path d="M404.223 190H401.322L402.957 180.596L399.978 181.439L400.382 179.093L406.042 177.203L406.367 177.194L404.223 190Z"
		      fill="white"/>
		<path d="M409.259 183.707L411.034 177.203H418.329L417.96 179.506H413.064L412.282 182.063C412.757 181.759 413.346 181.601 414.049 181.589C415.174 181.589 416.038 181.978 416.642 182.758C417.251 183.537 417.503 184.557 417.397 185.816C417.292 187.117 416.785 188.178 415.877 188.998C414.969 189.812 413.87 190.208 412.581 190.185C411.825 190.167 411.137 189.991 410.516 189.657C409.9 189.323 409.423 188.869 409.083 188.295C408.743 187.715 408.576 187.067 408.582 186.353H411.465C411.477 186.81 411.591 187.176 411.808 187.451C412.024 187.727 412.329 187.87 412.722 187.882C413.202 187.899 413.601 187.721 413.917 187.346C414.233 186.965 414.436 186.388 414.523 185.614C414.582 184.964 414.494 184.472 414.26 184.138C414.025 183.798 413.659 183.628 413.161 183.628C412.522 183.628 412.004 183.845 411.605 184.278L409.259 183.707Z"
		      fill="white"/>
		<path d="M422.706 190.176C421.979 190.158 421.344 189.988 420.799 189.666C420.26 189.338 419.844 188.86 419.551 188.233C419.258 187.601 419.1 186.883 419.076 186.08C419.059 185.646 419.076 185.21 419.129 184.77L419.463 182.538C419.732 180.739 420.31 179.365 421.194 178.416C422.079 177.461 423.207 176.998 424.578 177.027C425.691 177.051 426.562 177.426 427.188 178.152C427.821 178.879 428.161 179.869 428.208 181.123C428.22 181.557 428.199 181.993 428.146 182.433L427.795 184.709C427.514 186.531 426.931 187.905 426.046 188.831C425.167 189.757 424.054 190.205 422.706 190.176ZM425.316 182.037C425.369 181.627 425.398 181.267 425.404 180.956C425.404 179.884 425.064 179.33 424.385 179.295C423.342 179.242 422.694 180.136 422.442 181.976L421.977 185.14C421.918 185.626 421.889 185.986 421.889 186.221C421.859 187.305 422.196 187.867 422.899 187.908C423.96 187.961 424.613 187.044 424.859 185.157L425.316 182.037Z"
		      fill="white"/>
	</g>
	<g filter="url(#filter2_d)">
		<path d="M174.511 190.176C173.784 190.158 173.148 189.988 172.604 189.666C172.064 189.338 171.648 188.86 171.355 188.233C171.062 187.601 170.904 186.883 170.881 186.08C170.863 185.646 170.881 185.21 170.934 184.77L171.268 182.538C171.537 180.739 172.114 179.365 172.999 178.416C173.884 177.461 175.012 176.998 176.383 177.027C177.496 177.051 178.366 177.426 178.993 178.152C179.626 178.879 179.966 179.869 180.013 181.123C180.024 181.557 180.004 181.993 179.951 182.433L179.6 184.709C179.318 186.531 178.735 187.905 177.851 188.831C176.972 189.757 175.858 190.205 174.511 190.176ZM177.121 182.037C177.174 181.627 177.203 181.267 177.209 180.956C177.209 179.884 176.869 179.33 176.189 179.295C175.146 179.242 174.499 180.136 174.247 181.976L173.781 185.14C173.723 185.626 173.693 185.986 173.693 186.221C173.664 187.305 174.001 187.867 174.704 187.908C175.765 187.961 176.418 187.044 176.664 185.157L177.121 182.037Z"
		      fill="white"/>
	</g>
	<defs>
		<filter id="filter0_d" x="271.978" y="56.026" width="36.2337" height="21.1511" filterUnits="userSpaceOnUse"
		        color-interpolation-filters="sRGB">
			<feFlood flood-opacity="0" result="BackgroundImageFix"/>
			<feColorMatrix in="SourceAlpha" type="matrix" values="0 0 0 0 0 0 0 0 0 0 0 0 0 0 0 0 0 0 127 0"/>
			<feOffset dy="2"/>
			<feGaussianBlur stdDeviation="2"/>
			<feColorMatrix type="matrix" values="0 0 0 0 0 0 0 0 0 0 0 0 0 0 0 0 0 0 0.5 0"/>
			<feBlend mode="normal" in2="BackgroundImageFix" result="effect1_dropShadow"/>
			<feBlend mode="normal" in="SourceGraphic" in2="effect1_dropShadow" result="shape"/>
		</filter>
		<filter id="filter1_d" x="395.978" y="175.026" width="36.2337" height="21.1595" filterUnits="userSpaceOnUse"
		        color-interpolation-filters="sRGB">
			<feFlood flood-opacity="0" result="BackgroundImageFix"/>
			<feColorMatrix in="SourceAlpha" type="matrix" values="0 0 0 0 0 0 0 0 0 0 0 0 0 0 0 0 0 0 127 0"/>
			<feOffset dy="2"/>
			<feGaussianBlur stdDeviation="2"/>
			<feColorMatrix type="matrix" values="0 0 0 0 0 0 0 0 0 0 0 0 0 0 0 0 0 0 0.5 0"/>
			<feBlend mode="normal" in2="BackgroundImageFix" result="effect1_dropShadow"/>
			<feBlend mode="normal" in="SourceGraphic" in2="effect1_dropShadow" result="shape"/>
		</filter>
		<filter id="filter2_d" x="166.874" y="175.026" width="17.1416" height="21.1511" filterUnits="userSpaceOnUse"
		        color-interpolation-filters="sRGB">
			<feFlood flood-opacity="0" result="BackgroundImageFix"/>
			<feColorMatrix in="SourceAlpha" type="matrix" values="0 0 0 0 0 0 0 0 0 0 0 0 0 0 0 0 0 0 127 0"/>
			<feOffset dy="2"/>
			<feGaussianBlur stdDeviation="2"/>
			<feColorMatrix type="matrix" values="0 0 0 0 0 0 0 0 0 0 0 0 0 0 0 0 0 0 0.5 0"/>
			<feBlend mode="normal" in2="BackgroundImageFix" result="effect1_dropShadow"/>
			<feBlend mode="normal" in="SourceGraphic" in2="effect1_dropShadow" result="shape"/>
		</filter>
		<radialGradient id="paint0_radial" cx="0" cy="0" r="1" gradientUnits="userSpaceOnUse"
		                gradientTransform="translate(101.263 106) rotate(90) scale(106 101.263)">
			<stop offset="0.59116" stop-color="#FF0000"/>
			<stop offset="0.928177" stop-color="#3722BC" stop-opacity="0"/>
		</radialGradient>
		<linearGradient id="paint1_linear" x1="105.647" y1="0" x2="105.647" y2="21.2" gradientUnits="userSpaceOnUse">
			<stop stop-color="white"/>
			<stop offset="1" stop-color="white" stop-opacity="0"/>
		</linearGradient>
		<linearGradient id="paint2_linear" x1="0" y1="105.647" x2="21.2" y2="105.647" gradientUnits="userSpaceOnUse">
			<stop stop-color="white"/>
			<stop offset="1" stop-color="white" stop-opacity="0"/>
		</linearGradient>
		<radialGradient id="paint3_radial" cx="0" cy="0" r="1" gradientUnits="userSpaceOnUse"
		                gradientTransform="translate(290 184) rotate(90) scale(150)">
			<stop offset="0.59116" stop-color="#00D1FF"/>
			<stop offset="0.928177" stop-color="#3722BC" stop-opacity="0"/>
		</radialGradient>
		<linearGradient id="paint4_linear" x1="289.5" y1="34" x2="289.5" y2="64" gradientUnits="userSpaceOnUse">
			<stop stop-color="white"/>
			<stop offset="1" stop-color="white" stop-opacity="0"/>
		</linearGradient>
		<linearGradient id="paint5_linear" x1="140" y1="183.5" x2="170" y2="183.5" gradientUnits="userSpaceOnUse">
			<stop stop-color="white"/>
			<stop offset="1" stop-color="white" stop-opacity="0"/>
		</linearGradient>
		<linearGradient id="paint6_linear" x1="440" y1="183.5" x2="410" y2="183.5" gradientUnits="userSpaceOnUse">
			<stop stop-color="white"/>
			<stop offset="1" stop-color="white" stop-opacity="0"/>
		</linearGradient>
	</defs>
</svg>
